<svg id="visual" viewBox="0 0 2560 1440" width="2560" height="1440" xmlns="http://www.w3.org/2000/svg" xmlns:xlink="http://www.w3.org/1999/xlink" version="1.1"><rect x="0" y="0" width="2560" height="1440" fill="#121212"></rect><defs><linearGradient id="grad1_0" x1="43.8%" y1="0%" x2="100%" y2="100%"><stop offset="14.444444444444446%" stop-color="#58ff8d" stop-opacity="1"></stop><stop offset="85.55555555555554%" stop-color="#58ff8d" stop-opacity="1"></stop></linearGradient></defs><defs><linearGradient id="grad1_1" x1="43.8%" y1="0%" x2="100%" y2="100%"><stop offset="14.444444444444446%" stop-color="#58ff8d" stop-opacity="1"></stop><stop offset="85.55555555555554%" stop-color="#4dca72" stop-opacity="1"></stop></linearGradient></defs><defs><linearGradient id="grad1_2" x1="43.8%" y1="0%" x2="100%" y2="100%"><stop offset="14.444444444444446%" stop-color="#419758" stop-opacity="1"></stop><stop offset="85.55555555555554%" stop-color="#4dca72" stop-opacity="1"></stop></linearGradient></defs><defs><linearGradient id="grad1_3" x1="43.8%" y1="0%" x2="100%" y2="100%"><stop offset="14.444444444444446%" stop-color="#419758" stop-opacity="1"></stop><stop offset="85.55555555555554%" stop-color="#336740" stop-opacity="1"></stop></linearGradient></defs><defs><linearGradient id="grad1_4" x1="43.8%" y1="0%" x2="100%" y2="100%"><stop offset="14.444444444444446%" stop-color="#243a28" stop-opacity="1"></stop><stop offset="85.55555555555554%" stop-color="#336740" stop-opacity="1"></stop></linearGradient></defs><defs><linearGradient id="grad1_5" x1="43.8%" y1="0%" x2="100%" y2="100%"><stop offset="14.444444444444446%" stop-color="#243a28" stop-opacity="1"></stop><stop offset="85.55555555555554%" stop-color="#121212" stop-opacity="1"></stop></linearGradient></defs><defs><linearGradient id="grad2_0" x1="0%" y1="0%" x2="56.3%" y2="100%"><stop offset="14.444444444444446%" stop-color="#58ff8d" stop-opacity="1"></stop><stop offset="85.55555555555554%" stop-color="#58ff8d" stop-opacity="1"></stop></linearGradient></defs><defs><linearGradient id="grad2_1" x1="0%" y1="0%" x2="56.3%" y2="100%"><stop offset="14.444444444444446%" stop-color="#4dca72" stop-opacity="1"></stop><stop offset="85.55555555555554%" stop-color="#58ff8d" stop-opacity="1"></stop></linearGradient></defs><defs><linearGradient id="grad2_2" x1="0%" y1="0%" x2="56.3%" y2="100%"><stop offset="14.444444444444446%" stop-color="#4dca72" stop-opacity="1"></stop><stop offset="85.55555555555554%" stop-color="#419758" stop-opacity="1"></stop></linearGradient></defs><defs><linearGradient id="grad2_3" x1="0%" y1="0%" x2="56.3%" y2="100%"><stop offset="14.444444444444446%" stop-color="#336740" stop-opacity="1"></stop><stop offset="85.55555555555554%" stop-color="#419758" stop-opacity="1"></stop></linearGradient></defs><defs><linearGradient id="grad2_4" x1="0%" y1="0%" x2="56.3%" y2="100%"><stop offset="14.444444444444446%" stop-color="#336740" stop-opacity="1"></stop><stop offset="85.55555555555554%" stop-color="#243a28" stop-opacity="1"></stop></linearGradient></defs><defs><linearGradient id="grad2_5" x1="0%" y1="0%" x2="56.3%" y2="100%"><stop offset="14.444444444444446%" stop-color="#121212" stop-opacity="1"></stop><stop offset="85.55555555555554%" stop-color="#243a28" stop-opacity="1"></stop></linearGradient></defs><g transform="translate(2560, 0)"><path d="M0 792C-77.5 755.5 -154.9 719 -220.9 680C-287 641 -341.6 599.4 -411.4 566.3C-481.3 533.2 -566.5 508.7 -628.6 456.7C-690.7 404.8 -729.8 325.4 -753.2 244.7C-776.6 164.1 -784.3 82 -792 0L0 0Z" fill="#1c261d"></path><path d="M0 660C-64.5 629.6 -129.1 599.2 -184.1 566.7C-239.1 534.1 -284.6 499.5 -342.9 471.9C-401.1 444.4 -472.1 423.9 -523.8 380.6C-575.6 337.3 -608.2 271.2 -627.7 204C-647.2 136.7 -653.6 68.4 -660 0L0 0Z" fill="#2c5034"></path><path d="M0 528C-51.6 503.7 -103.3 479.4 -147.3 453.3C-191.3 427.3 -227.7 399.6 -274.3 377.5C-320.9 355.5 -377.7 339.1 -419.1 304.5C-460.5 269.8 -486.6 216.9 -502.2 163.2C-517.8 109.4 -522.9 54.7 -528 0L0 0Z" fill="#3a7e4c"></path><path d="M0 396C-38.7 377.8 -77.5 359.5 -110.5 340C-143.5 320.5 -170.8 299.7 -205.7 283.2C-240.7 266.6 -283.2 254.3 -314.3 228.4C-345.4 202.4 -364.9 162.7 -376.6 122.4C-388.3 82 -392.2 41 -396 0L0 0Z" fill="#47b065"></path><path d="M0 264C-25.8 251.8 -51.6 239.7 -73.6 226.7C-95.7 213.7 -113.9 199.8 -137.1 188.8C-160.4 177.7 -188.8 169.6 -209.5 152.2C-230.2 134.9 -243.3 108.5 -251.1 81.6C-258.9 54.7 -261.4 27.3 -264 0L0 0Z" fill="#53e47f"></path><path d="M0 132C-12.9 125.9 -25.8 119.8 -36.8 113.3C-47.8 106.8 -56.9 99.9 -68.6 94.4C-80.2 88.9 -94.4 84.8 -104.8 76.1C-115.1 67.5 -121.6 54.2 -125.5 40.8C-129.4 27.3 -130.7 13.7 -132 0L0 0Z" fill="#58ff8d"></path></g><g transform="translate(0, 1440)"><path d="M0 -792C72.6 -758.5 145.3 -725 230.2 -708.5C315.1 -692 412.3 -692.5 465.5 -640.7C518.7 -589 527.9 -485.1 567.1 -412C606.3 -339 675.6 -296.8 718 -233.3C760.5 -169.8 776.3 -84.9 792 0L0 0Z" fill="#1c261d"></path><path d="M0 -660C60.5 -632.1 121.1 -604.2 191.8 -590.4C262.6 -576.7 343.6 -577.1 387.9 -534C432.3 -490.8 439.9 -404.2 472.6 -343.4C505.3 -282.5 563 -247.4 598.4 -194.4C633.8 -141.5 646.9 -70.7 660 0L0 0Z" fill="#2c5034"></path><path d="M0 -528C48.4 -505.7 96.9 -483.4 153.5 -472.4C210.1 -461.4 274.9 -461.7 310.4 -427.2C345.8 -392.7 351.9 -323.4 378.1 -274.7C404.2 -226 450.4 -197.9 478.7 -155.5C507 -113.2 517.5 -56.6 528 0L0 0Z" fill="#3a7e4c"></path><path d="M0 -396C36.3 -379.3 72.6 -362.5 115.1 -354.3C157.6 -346 206.2 -346.2 232.8 -320.4C259.4 -294.5 264 -242.5 283.6 -206C303.2 -169.5 337.8 -148.4 359 -116.7C380.3 -84.9 388.1 -42.4 396 0L0 0Z" fill="#47b065"></path><path d="M0 -264C24.2 -252.8 48.4 -241.7 76.7 -236.2C105 -230.7 137.4 -230.8 155.2 -213.6C172.9 -196.3 176 -161.7 189 -137.3C202.1 -113 225.2 -98.9 239.3 -77.8C253.5 -56.6 258.8 -28.3 264 0L0 0Z" fill="#53e47f"></path><path d="M0 -132C12.1 -126.4 24.2 -120.8 38.4 -118.1C52.5 -115.3 68.7 -115.4 77.6 -106.8C86.5 -98.2 88 -80.8 94.5 -68.7C101.1 -56.5 112.6 -49.5 119.7 -38.9C126.8 -28.3 129.4 -14.1 132 0L0 0Z" fill="#58ff8d"></path></g></svg>