<svg id="visual" viewBox="0 0 675 900" width="675" height="900" xmlns="http://www.w3.org/2000/svg" xmlns:xlink="http://www.w3.org/1999/xlink" version="1.1"><rect x="0" y="0" width="675" height="900" fill="#121212"></rect><defs><linearGradient id="grad1_0" x1="0%" y1="0%" x2="100%" y2="100%"><stop offset="30%" stop-color="#58ff8d" stop-opacity="1"></stop><stop offset="70%" stop-color="#58ff8d" stop-opacity="1"></stop></linearGradient></defs><defs><linearGradient id="grad1_1" x1="0%" y1="0%" x2="100%" y2="100%"><stop offset="30%" stop-color="#58ff8d" stop-opacity="1"></stop><stop offset="70%" stop-color="#50d97a" stop-opacity="1"></stop></linearGradient></defs><defs><linearGradient id="grad1_2" x1="0%" y1="0%" x2="100%" y2="100%"><stop offset="30%" stop-color="#48b367" stop-opacity="1"></stop><stop offset="70%" stop-color="#50d97a" stop-opacity="1"></stop></linearGradient></defs><defs><linearGradient id="grad1_3" x1="0%" y1="0%" x2="100%" y2="100%"><stop offset="30%" stop-color="#48b367" stop-opacity="1"></stop><stop offset="70%" stop-color="#3f9055" stop-opacity="1"></stop></linearGradient></defs><defs><linearGradient id="grad1_4" x1="0%" y1="0%" x2="100%" y2="100%"><stop offset="30%" stop-color="#356d43" stop-opacity="1"></stop><stop offset="70%" stop-color="#3f9055" stop-opacity="1"></stop></linearGradient></defs><defs><linearGradient id="grad1_5" x1="0%" y1="0%" x2="100%" y2="100%"><stop offset="30%" stop-color="#356d43" stop-opacity="1"></stop><stop offset="70%" stop-color="#2b4d32" stop-opacity="1"></stop></linearGradient></defs><defs><linearGradient id="grad1_6" x1="0%" y1="0%" x2="100%" y2="100%"><stop offset="30%" stop-color="#1f2e22" stop-opacity="1"></stop><stop offset="70%" stop-color="#2b4d32" stop-opacity="1"></stop></linearGradient></defs><defs><linearGradient id="grad1_7" x1="0%" y1="0%" x2="100%" y2="100%"><stop offset="30%" stop-color="#1f2e22" stop-opacity="1"></stop><stop offset="70%" stop-color="#121212" stop-opacity="1"></stop></linearGradient></defs><defs><linearGradient id="grad2_0" x1="0%" y1="0%" x2="100%" y2="100%"><stop offset="30%" stop-color="#58ff8d" stop-opacity="1"></stop><stop offset="70%" stop-color="#58ff8d" stop-opacity="1"></stop></linearGradient></defs><defs><linearGradient id="grad2_1" x1="0%" y1="0%" x2="100%" y2="100%"><stop offset="30%" stop-color="#50d97a" stop-opacity="1"></stop><stop offset="70%" stop-color="#58ff8d" stop-opacity="1"></stop></linearGradient></defs><defs><linearGradient id="grad2_2" x1="0%" y1="0%" x2="100%" y2="100%"><stop offset="30%" stop-color="#50d97a" stop-opacity="1"></stop><stop offset="70%" stop-color="#48b367" stop-opacity="1"></stop></linearGradient></defs><defs><linearGradient id="grad2_3" x1="0%" y1="0%" x2="100%" y2="100%"><stop offset="30%" stop-color="#3f9055" stop-opacity="1"></stop><stop offset="70%" stop-color="#48b367" stop-opacity="1"></stop></linearGradient></defs><defs><linearGradient id="grad2_4" x1="0%" y1="0%" x2="100%" y2="100%"><stop offset="30%" stop-color="#3f9055" stop-opacity="1"></stop><stop offset="70%" stop-color="#356d43" stop-opacity="1"></stop></linearGradient></defs><defs><linearGradient id="grad2_5" x1="0%" y1="0%" x2="100%" y2="100%"><stop offset="30%" stop-color="#2b4d32" stop-opacity="1"></stop><stop offset="70%" stop-color="#356d43" stop-opacity="1"></stop></linearGradient></defs><defs><linearGradient id="grad2_6" x1="0%" y1="0%" x2="100%" y2="100%"><stop offset="30%" stop-color="#2b4d32" stop-opacity="1"></stop><stop offset="70%" stop-color="#1f2e22" stop-opacity="1"></stop></linearGradient></defs><defs><linearGradient id="grad2_7" x1="0%" y1="0%" x2="100%" y2="100%"><stop offset="30%" stop-color="#121212" stop-opacity="1"></stop><stop offset="70%" stop-color="#1f2e22" stop-opacity="1"></stop></linearGradient></defs><g transform="translate(675, 0)"><path d="M0 393.8C-31.7 363 -63.3 332.3 -105.4 324.3C-147.4 316.3 -199.8 331 -225.7 310.7C-251.6 290.4 -251.1 235.1 -275.9 200.4C-300.6 165.8 -350.6 151.7 -374.5 121.7C-398.3 91.7 -396 45.8 -393.7 0L0 0Z" fill="#19201a"></path><path d="M0 344.5C-27.7 317.7 -55.4 290.8 -92.2 283.8C-129 276.8 -174.8 289.6 -197.5 271.8C-220.2 254.1 -219.7 205.7 -241.4 175.4C-263 145 -306.8 132.7 -327.7 106.5C-348.5 80.2 -346.5 40.1 -344.5 0L0 0Z" fill="#253d2a"></path><path d="M0 295.3C-23.8 272.3 -47.5 249.2 -79 243.2C-110.6 237.2 -149.8 248.2 -169.3 233C-188.7 217.8 -188.3 176.3 -206.9 150.3C-225.5 124.3 -263 113.7 -280.9 91.3C-298.8 68.8 -297 34.4 -295.3 0L0 0Z" fill="#305d3b"></path><path d="M0 246.1C-19.8 226.9 -39.6 207.7 -65.9 202.7C-92.1 197.7 -124.9 206.8 -141.1 194.2C-157.3 181.5 -157 146.9 -172.4 125.3C-187.9 103.6 -219.1 94.8 -234 76C-249 57.3 -247.5 28.7 -246.1 0L0 0Z" fill="#3a7e4c"></path><path d="M0 196.9C-15.8 181.5 -31.7 166.2 -52.7 162.2C-73.7 158.1 -99.9 165.5 -112.9 155.3C-125.8 145.2 -125.6 117.6 -137.9 100.2C-150.3 82.9 -175.3 75.8 -187.2 60.8C-199.2 45.8 -198 22.9 -196.9 0L0 0Z" fill="#44a15e"></path><path d="M0 147.7C-11.9 136.1 -23.8 124.6 -39.5 121.6C-55.3 118.6 -74.9 124.1 -84.6 116.5C-94.4 108.9 -94.2 88.2 -103.5 75.2C-112.7 62.2 -131.5 56.9 -140.4 45.6C-149.4 34.4 -148.5 17.2 -147.7 0L0 0Z" fill="#4cc670"></path><path d="M0 98.4C-7.9 90.8 -15.8 83.1 -26.3 81.1C-36.9 79.1 -49.9 82.7 -56.4 77.7C-62.9 72.6 -62.8 58.8 -69 50.1C-75.2 41.4 -87.7 37.9 -93.6 30.4C-99.6 22.9 -99 11.5 -98.4 0L0 0Z" fill="#54ec83"></path><path d="M0 49.2C-4 45.4 -7.9 41.5 -13.2 40.5C-18.4 39.5 -25 41.4 -28.2 38.8C-31.5 36.3 -31.4 29.4 -34.5 25.1C-37.6 20.7 -43.8 19 -46.8 15.2C-49.8 11.5 -49.5 5.7 -49.2 0L0 0Z" fill="#58ff8d"></path></g><g transform="translate(0, 900)"><path d="M0 -393.7C35.8 -375 71.6 -356.2 112.8 -347.1C154 -338 200.6 -338.5 229.8 -316.3C259.1 -294.1 271.1 -249.1 295.3 -214.5C319.5 -179.9 356 -155.7 374.5 -121.7C392.9 -87.6 393.3 -43.8 393.8 0L0 0Z" fill="#19201a"></path><path d="M0 -344.5C31.3 -328.1 62.7 -311.7 98.7 -303.7C134.7 -295.8 175.5 -296.2 201.1 -276.8C226.7 -257.3 237.2 -218 258.4 -187.7C279.6 -157.4 311.5 -136.2 327.7 -106.5C343.8 -76.7 344.2 -38.3 344.5 0L0 0Z" fill="#253d2a"></path><path d="M0 -295.3C26.9 -281.2 53.7 -267.2 84.6 -260.4C115.5 -253.5 150.4 -253.9 172.4 -237.2C194.3 -220.6 203.3 -186.9 221.5 -160.9C239.6 -135 267 -116.8 280.9 -91.3C294.7 -65.7 295 -32.9 295.3 0L0 0Z" fill="#305d3b"></path><path d="M0 -246.1C22.4 -234.4 44.8 -222.7 70.5 -217C96.2 -211.3 125.3 -211.6 143.6 -197.7C161.9 -183.8 169.4 -155.7 184.6 -134.1C199.7 -112.5 222.5 -97.3 234 -76C245.6 -54.8 245.8 -27.4 246.1 0L0 0Z" fill="#3a7e4c"></path><path d="M0 -196.9C17.9 -187.5 35.8 -178.1 56.4 -173.6C77 -169 100.3 -169.3 114.9 -158.2C129.5 -147.1 135.5 -124.6 147.6 -107.3C159.8 -90 178 -77.9 187.2 -60.8C196.5 -43.8 196.7 -21.9 196.9 0L0 0Z" fill="#44a15e"></path><path d="M0 -147.7C13.4 -140.6 26.9 -133.6 42.3 -130.2C57.7 -126.8 75.2 -127 86.2 -118.6C97.2 -110.3 101.6 -93.4 110.7 -80.5C119.8 -67.5 133.5 -58.4 140.4 -45.6C147.3 -32.9 147.5 -16.4 147.7 0L0 0Z" fill="#4cc670"></path><path d="M0 -98.4C9 -93.7 17.9 -89.1 28.2 -86.8C38.5 -84.5 50.1 -84.6 57.5 -79.1C64.8 -73.5 67.8 -62.3 73.8 -53.6C79.9 -45 89 -38.9 93.6 -30.4C98.2 -21.9 98.3 -11 98.4 0L0 0Z" fill="#54ec83"></path><path d="M0 -49.2C4.5 -46.9 9 -44.5 14.1 -43.4C19.2 -42.3 25.1 -42.3 28.7 -39.5C32.4 -36.8 33.9 -31.1 36.9 -26.8C39.9 -22.5 44.5 -19.5 46.8 -15.2C49.1 -11 49.2 -5.5 49.2 0L0 0Z" fill="#58ff8d"></path></g></svg>